Coordinates
version=1
nRows=8
nColumns=36
inDegrees=yes

Units are S.I. units (second, meters, Newtons, ...)
If the header above contains a line with 'inDegrees', this indicates whether rotational values are in degrees (yes) or radians (no).

endheader
time	pelvis_tilt	pelvis_list	pelvis_rotation	pelvis_tx	pelvis_ty	pelvis_tz	hip_flexion_r	hip_adduction_r	hip_rotation_r	knee_angle_r	knee_angle_r_beta	ankle_angle_r	subtalar_angle_r	mtp_angle_r	hip_flexion_l	hip_adduction_l	hip_rotation_l	knee_angle_l	knee_angle_l_beta	ankle_angle_l	subtalar_angle_l	mtp_angle_l	lumbar_extension	lumbar_bending	lumbar_rotation	arm_flex_r	arm_add_r	arm_rot_r	elbow_flex_r	pro_sup_r	arm_flex_l	arm_add_l	arm_rot_l	elbow_flex_l	pro_sup_l
      3.85000000	     -0.98590965	     -2.22728327	      5.79992899	      0.36594056	      0.95725541	     -0.13649369	      8.11223559	     -4.94367445	     -3.07718644	      6.02822103	      0.10521231	      4.67669281	     -2.62865812	     -7.49999929	      5.07570529	     -4.03062657	     -8.18976309	      4.84342006	      0.08453363	      7.71883863	     -2.38720263	     -7.49999929	     -0.55757681	      0.86600049	      7.96033912	     51.57919571	      7.09581039	     71.04624293	    111.05434633	     85.36693883	     40.67143887	      3.29817223	     60.43731718	    125.67381825	     75.30053223
      3.86666670	     -1.10199683	     -2.20795318	      5.72056953	      0.36113185	      0.95612372	     -0.13871685	      8.34331496	     -5.00016857	     -3.00812584	      6.05298891	      0.10564459	      4.74083000	     -2.60027953	     -7.49999929	      5.13793765	     -3.95741557	     -7.99117546	      4.72006311	      0.08238064	      7.86898289	     -2.28973440	     -7.49999929	     -0.50854406	      0.88146897	      7.85373050	     51.94060343	      7.08461800	     70.90397738	    111.21819301	     85.45447108	     41.04401368	      3.69313379	     60.29004856	    125.87154995	     75.35216423
      3.88333330	     -1.11702817	     -2.15971294	      5.71460004	      0.36087852	      0.96167054	     -0.13889998	      8.45806474	     -5.04358227	     -2.79799500	      6.14335795	      0.10722182	      4.75968274	     -2.53573500	     -7.49999929	      5.18312966	     -3.89487286	     -7.85694786	      4.71047047	      0.08221322	      7.87027327	     -2.21576582	     -7.49999929	     -0.62591997	      0.81332458	      7.62658683	     51.85229197	      6.92601114	     70.92770320	    111.26949942	     85.48299592	     41.01149914	      3.89511725	     60.35330253	    125.95153952	     75.36962666
      3.90000000	     -1.09556525	     -2.14721863	      5.72779774	      0.36595268	      0.96199641	     -0.13620872	      8.42652877	     -4.98713900	     -2.57014657	      6.29478230	      0.10986468	      4.83622789	     -2.54624970	     -7.49999930	      5.06807683	     -3.92814969	     -7.76946651	      4.68488923	      0.08176674	      7.79277691	     -2.13954419	     -7.49999930	     -0.72121751	      0.68078625	      7.52820993	     51.61201158	      7.09137618	     71.11804644	    111.41120286	     85.55188056	     40.96876451	      3.96855955	     60.59627061	    125.98171755	     75.40618165
      3.91666670	     -1.05704732	     -2.13133921	      5.59860875	      0.36649493	      0.95899317	     -0.13596109	      8.53547457	     -4.94725814	     -2.18089362	      6.71229935	      0.11715172	      4.97002631	     -3.00729825	     -7.49999941	      5.02168796	     -3.97098189	     -7.90847937	      4.86066933	      0.08483468	      7.77132505	     -2.35485311	     -7.49999941	     -0.84748130	      0.50744612	      7.41907674	     51.77841226	      7.27392405	     71.48479345	    111.69813514	     83.74031347	     41.34162352	      3.95583209	     61.23660160	    126.22013916	     73.93298270
      3.93333330	     -1.04906483	     -2.11565491	      5.52501440	      0.36175372	      0.95530320	     -0.13852193	      8.84646742	     -4.99796137	     -1.86002003	      7.28792777	      0.12719834	      5.35576277	     -3.24796130	     -7.49999942	      5.24184876	     -3.92459813	     -7.88817398	      5.27580303	      0.09208013	      8.03061022	     -2.56477746	     -7.49999942	     -0.87331656	      0.59547435	      7.19721190	     51.79377934	      7.21752591	     71.33381937	    111.85540261	     83.85194923	     41.69252923	      3.96921161	     61.06779394	    126.22000110	     73.96974460
      3.95000000	     -1.13966941	     -2.09702066	      5.30715225	      0.36156552	      0.95841700	     -0.13869069	      9.35894923	     -4.98062750	     -0.90783389	      7.92134208	      0.13825350	      5.29775965	     -4.34306615	     -7.49999954	      5.53016335	     -3.91358967	     -7.86081890	      5.65876814	      0.09876414	      8.09687092	     -2.83326074	     -7.49999954	     -0.87180013	      0.58555564	      7.37527929	     51.92247988	      7.06695673	     70.96485679	    111.76506815	     86.50529675	     41.86248331	      3.93172752	     61.20099506	    126.10220731	     74.61665468
      3.96666670	     -1.19994475	     -2.11679567	      5.17876742	      0.36205010	      0.95530237	     -0.13865533	      9.82301267	     -4.95261533	     -0.32632225	      8.60315369	      0.15015336	      5.68685789	     -4.64187335	     -7.49999958	      5.93839171	     -3.94086145	     -7.60676364	      6.32407437	      0.11037592	      8.43414082	     -3.45949958	     -7.49999958	     -0.90213988	      0.65539569	      7.29739804	     51.94613190	      6.95475306	     70.81935083	    111.62381511	     84.65707217	     42.04506382	      3.84368298	     61.19408495	    126.15861128	     73.35697396
